<svg width="274" height="81" viewBox="0 0 274 81" fill="none" xmlns="http://www.w3.org/2000/svg">
<path d="M171.655 40.311C171.655 21.1899 156.154 5.68921 137.033 5.68921C117.912 5.68921 102.411 21.1899 102.411 40.311C102.411 59.432 117.912 74.9331 137.033 74.9331C156.154 74.9331 171.655 59.432 171.655 40.311Z" fill="white" stroke="#FED136" stroke-width="3"/>
<path fill-rule="evenodd" clip-rule="evenodd" d="M139.059 19.3696C140.376 18.6089 142.06 19.0601 142.82 20.3771L146.95 27.5308C147.07 27.7385 147.16 27.9554 147.221 28.1764H151.105C153.006 28.1764 154.547 29.7171 154.547 31.6177C154.547 33.5182 153.006 35.0596 151.105 35.0596H119.442C117.541 35.0596 116 33.5182 116 31.6177C116 29.7171 117.541 28.1764 119.442 28.1764H123.326C123.387 27.9554 123.476 27.7385 123.596 27.5308L127.726 20.3771C128.487 19.0601 130.171 18.6089 131.487 19.3696C132.804 20.1302 133.255 21.8137 132.495 23.1307L129.582 28.1764H140.965L138.051 23.1307C137.291 21.8137 137.742 20.1302 139.059 19.3696ZM120.024 57.0863L118.833 36.436H151.714L150.522 57.0863H120.024ZM136.65 43.3192C136.65 42.559 136.034 41.943 135.273 41.943C134.513 41.943 133.897 42.559 133.897 43.3192V51.5796C133.897 52.3398 134.513 52.9562 135.273 52.9562C136.034 52.9562 136.65 52.3398 136.65 51.5796V43.3192ZM143.533 41.943C144.294 41.943 144.91 42.559 144.91 43.3192V51.5796C144.91 52.3398 144.294 52.9562 143.533 52.9562C142.773 52.9562 142.157 52.3398 142.157 51.5796V43.3192C142.157 42.559 142.773 41.943 143.533 41.943ZM128.39 43.3192C128.39 42.559 127.774 41.943 127.013 41.943C126.253 41.943 125.637 42.559 125.637 43.3192V51.5796C125.637 52.3398 126.253 52.9562 127.013 52.9562C127.774 52.9562 128.39 52.3398 128.39 51.5796V43.3192Z" fill="#FED136"/>
</svg>
