<svg width="274" height="81" viewBox="0 0 274 81" fill="none" xmlns="http://www.w3.org/2000/svg">
<path d="M171.537 40.3166C171.537 21.1949 156.036 5.69453 136.915 5.69453C117.794 5.69453 102.293 21.1949 102.293 40.3166C102.293 59.4374 117.794 74.9384 136.915 74.9384C156.036 74.9384 171.537 59.4374 171.537 40.3166Z" fill="white" stroke="#FED136" stroke-width="3"/>
<path fill-rule="evenodd" clip-rule="evenodd" d="M149.634 22H122.727C120.498 22 118.691 23.8069 118.691 26.0358V43.5256C118.691 43.9973 118.772 44.4502 118.92 44.871H118.691V47.5617H122.727V26.0358H149.634V47.5617H153.67V44.871H153.44C153.589 44.4502 153.67 43.9973 153.67 43.5256V26.0358C153.67 23.8069 151.863 22 149.634 22ZM118.691 50.2519H153.67C155.156 50.2519 156.361 51.4571 156.361 52.9432C156.361 54.4291 153.811 55.6338 152.325 55.6338H120.036C118.55 55.6338 116 54.4291 116 52.9432C116 51.4571 117.205 50.2519 118.691 50.2519ZM140.217 52.9432H132.144C131.401 52.9432 130.799 53.2443 130.799 53.6156C130.799 53.987 131.401 54.2883 132.144 54.2883H140.217C140.96 54.2883 141.562 53.987 141.562 53.6156C141.562 53.2443 140.96 52.9432 140.217 52.9432ZM127.147 37.7839L129.041 35.8807C129.564 35.3556 130.412 35.3556 130.935 35.8807L133.418 38.375L141.421 30.337C141.944 29.8113 142.792 29.8113 143.315 30.337L145.209 32.2391C145.732 32.7645 145.732 33.6167 145.209 34.142L134.791 44.6063C134.343 45.0562 133.657 45.1208 133.14 44.8002C132.703 44.9046 132.224 44.7854 131.882 44.4427L127.147 39.6864C126.624 39.1611 126.624 38.3096 127.147 37.7839Z" fill="#FED136"/>
</svg>
