<svg width="274" height="83" viewBox="0 0 274 83" fill="none" xmlns="http://www.w3.org/2000/svg">
<path d="M171.579 41.309C171.579 22.1877 156.078 6.68708 136.957 6.68708C117.836 6.68708 102.335 22.1877 102.335 41.309C102.335 60.43 117.836 75.9314 136.957 75.9314C156.078 75.9314 171.579 60.43 171.579 41.309Z" fill="white" stroke="#FED136" stroke-width="3"/>
<path fill-rule="evenodd" clip-rule="evenodd" d="M134.999 19C140.154 19 144.332 22.6563 144.332 27.1667V36.4996H145.499C147.432 36.4996 148.999 38.0663 148.999 39.9997V52.8321C148.999 54.7648 147.432 56.3322 145.499 56.3322H124.5C122.567 56.3322 121 54.7648 121 52.8321V39.9997C121 38.0663 122.567 36.4996 124.5 36.4996H125.666V27.1667C125.666 22.6563 129.845 19 134.999 19ZM139.4 36.4996H130.599C130.427 36.1346 130.333 35.7417 130.333 35.3325V27.1667C130.333 25.234 132.422 23.6666 134.999 23.6666C137.577 23.6666 139.666 25.234 139.666 27.1667V35.3325C139.666 35.7417 139.572 36.1346 139.4 36.4996ZM137.333 48.7079C138.727 47.9009 139.666 46.3926 139.666 44.6654C139.666 42.089 137.577 39.9997 134.999 39.9997C132.422 39.9997 130.333 42.089 130.333 44.6654C130.333 46.3927 131.271 47.901 132.666 48.7079V50.4984C132.666 51.788 133.711 52.8321 134.999 52.8321C136.288 52.8321 137.333 51.788 137.333 50.4984V48.7079Z" fill="#FED136"/>
</svg>
